# Blender v3.0.0 OBJ File: ''
# www.blender.org
o Cube
v 3.000000 0.088056 -1.000000
v 3.000000 -1.911944 -1.000000
v 3.000000 0.088056 1.000000
v 3.000000 -1.911944 1.000000
v -3.000000 0.088056 -1.000000
v -3.000000 -1.911944 -1.000000
v -3.000000 0.088056 1.000000
v -3.000000 -1.911944 1.000000
v -0.990000 -1.911944 -1.000000
v -0.990000 0.088056 1.000000
v -0.990000 -1.911944 1.000000
v -0.990000 0.088056 -1.000000
v 3.000000 1.867602 -1.000000
v 3.000000 1.867602 1.000000
v -0.990000 1.867602 -1.000000
v -0.990000 1.867602 1.000000
v 1.005000 -1.911944 1.000000
v 1.005000 0.088056 -1.000000
v 1.005000 -1.911944 -1.000000
v 1.005000 0.088056 1.000000
v 1.005000 1.867602 -1.000000
v 1.005000 1.867602 1.000000
v 3.000000 3.665733 -1.000000
v 3.000000 3.665733 1.000000
v 1.005000 3.665733 -1.000000
v 1.005000 3.665733 1.000000
vt 0.791250 0.500000
vt 0.875000 0.500000
vt 0.875000 0.750000
vt 0.791250 0.750000
vt 0.375000 0.916250
vt 0.625000 0.916250
vt 0.625000 1.000000
vt 0.375000 1.000000
vt 0.375000 0.000000
vt 0.625000 0.000000
vt 0.625000 0.250000
vt 0.375000 0.250000
vt 0.291875 0.500000
vt 0.375000 0.500000
vt 0.375000 0.750000
vt 0.291875 0.750000
vt 0.625000 0.500000
vt 0.625000 0.750000
vt 0.375000 0.416875
vt 0.625000 0.416875
vt 0.625000 0.333750
vt 0.375000 0.333750
vt 0.125000 0.500000
vt 0.208750 0.500000
vt 0.208750 0.750000
vt 0.125000 0.750000
vt 0.375000 0.833125
vt 0.625000 0.833125
vt 0.625000 0.333750
vt 0.625000 0.416875
vt 0.708125 0.500000
vt 0.791250 0.500000
vt 0.791250 0.750000
vt 0.708125 0.750000
vt 0.625000 0.750000
vt 0.625000 0.833125
vt 0.625000 0.500000
vt 0.625000 0.916250
vt 0.625000 0.416875
vt 0.625000 0.500000
vt 0.708125 0.500000
vt 0.708125 0.750000
vt 0.625000 0.750000
vt 0.625000 0.833125
vn 0.0000 1.0000 0.0000
vn 0.0000 0.0000 1.0000
vn -1.0000 0.0000 0.0000
vn 0.0000 -1.0000 0.0000
vn 1.0000 0.0000 0.0000
vn 0.0000 0.0000 -1.0000
s off
f 12/1/1 5/2/1 7/3/1 10/4/1
f 11/5/2 10/6/2 7/7/2 8/8/2
f 8/9/3 7/10/3 5/11/3 6/12/3
f 19/13/4 2/14/4 4/15/4 17/16/4
f 2/14/5 1/17/5 3/18/5 4/15/5
f 19/19/6 18/20/6 1/17/6 2/14/6
f 6/12/6 5/11/6 12/21/6 9/22/6
f 6/23/4 9/24/4 11/25/4 8/26/4
f 17/27/2 20/28/2 10/6/2 11/5/2
f 18/20/6 12/21/6 15/29/6 21/30/6
f 21/31/1 15/32/1 16/33/1 22/34/1
f 12/1/3 10/4/3 16/33/3 15/32/3
f 20/28/2 3/18/2 14/35/2 22/36/2
f 3/18/5 1/17/5 13/37/5 14/35/5
f 10/6/2 20/28/2 22/36/2 16/38/2
f 13/37/6 21/30/6 25/39/6 23/40/6
f 1/17/6 18/20/6 21/30/6 13/37/6
f 4/15/2 3/18/2 20/28/2 17/27/2
f 9/22/6 12/21/6 18/20/6 19/19/6
f 9/24/4 19/13/4 17/16/4 11/25/4
f 23/40/1 25/41/1 26/42/1 24/43/1
f 21/31/3 22/34/3 26/42/3 25/41/3
f 22/36/2 14/35/2 24/43/2 26/44/2
f 14/35/5 13/37/5 23/40/5 24/43/5
