# Blender v3.0.0 OBJ File: ''
# www.blender.org
mtllib goal.mtl
o Icosphere
v 0.234549 -0.149934 0.739096
v 0.139092 -0.625902 0.451922
v -0.628301 -0.151734 0.462284
v -0.394767 -0.629833 -0.281018
v -0.394767 -0.629833 0.281018
v 0.775407 -0.149935 0.005325
v 0.472789 -0.625902 0.007371
v 0.145756 -0.630946 -0.452140
v 0.234549 -0.149934 -0.739096
v -0.241079 0.142742 0.738418
v -0.629514 -0.151795 -0.452139
v -0.776781 0.142743 0.001098
v -0.480873 0.626501 0.005328
v 0.628287 0.142971 -0.447370
v -0.241079 0.142742 -0.738418
v -0.153110 0.625902 -0.447368
v 0.619630 0.142971 0.459286
v 0.378163 0.625902 -0.283858
v 0.385904 0.626501 0.286957
v -0.149236 0.618153 0.459292
v -0.001424 1.220468 0.007724
v 0.335119 0.542351 -1.038364
v -0.885037 0.543178 -0.639990
v -0.886120 0.539963 0.644848
v 0.336003 0.542271 1.042835
v 0.882000 -0.548462 -0.638584
v -0.340530 -0.552335 -1.040292
v -1.098109 -0.550388 0.003788
v -0.343245 -0.549933 1.039461
v -0.010097 -1.222666 -0.002495
v 1.088782 0.547369 0.005083
v 0.878138 -0.545982 0.645863
vt 0.270738 0.261286
vt 0.316403 0.235465
vt 0.312933 0.285863
vt 0.909091 0.107272
vt 0.863899 0.080632
vt 0.909021 0.058502
vt 0.907101 0.103825
vt 0.952767 0.078006
vt 0.949267 0.128111
vt 0.830907 0.058082
vt 0.865247 0.077361
vt 0.852437 0.118719
vt 0.649088 0.058082
vt 0.683428 0.077362
vt 0.670588 0.118579
vt 0.418659 0.121029
vt 0.500260 0.077129
vt 0.487032 0.117603
vt 0.088920 0.261286
vt 0.134585 0.235465
vt 0.131162 0.285776
vt 0.816192 0.261286
vt 0.861858 0.235466
vt 0.858230 0.285568
vt 0.691529 0.278736
vt 0.773766 0.235938
vt 0.768859 0.291386
vt 0.509569 0.278488
vt 0.591170 0.234588
vt 0.577640 0.274958
vt 0.897884 0.411672
vt 0.825204 0.460721
vt 0.834703 0.423479
vt 0.864018 0.391571
vt 0.773874 0.392259
vt 0.812133 0.460448
vt 0.558180 0.313826
vt 0.636966 0.313215
vt 0.592963 0.235080
vt 0.740141 0.314074
vt 0.819563 0.314563
vt 0.820036 0.313462
vt 0.816665 0.313743
vt 0.895483 0.314336
vt 0.901780 0.303427
vt 0.089393 0.313743
vt 0.168210 0.314336
vt 0.174508 0.303427
vt 0.467271 0.156366
vt 0.546058 0.155755
vt 0.502055 0.077618
vt 0.642951 0.145551
vt 0.649724 0.156732
vt 0.727904 0.155772
vt 0.824770 0.145549
vt 0.831542 0.156732
vt 0.909721 0.155772
vt 0.907574 0.156283
vt 0.986391 0.156876
vt 0.992690 0.145968
vt 0.954284 0.080634
vt 0.915390 0.012079
vt 0.902793 0.012078
vt 0.271211 0.313743
vt 0.350026 0.314336
vt 0.356325 0.303426
vt 0.225663 0.077362
vt 0.260005 0.058082
vt 0.238510 0.118702
vt 0.181187 0.155772
vt 0.259369 0.156732
vt 0.266141 0.145551
vn 0.7900 -0.3548 0.5000
vn -0.8389 -0.5443 0.0000
vn -0.0268 -0.9939 0.1065
vn -0.1122 -0.9937 0.0000
vn -0.0350 -0.9940 -0.1039
vn 0.7643 -0.4841 0.4261
vn -0.2251 -0.3637 0.9039
vn -0.9290 -0.3639 0.0667
vn -0.3578 -0.3640 -0.8599
vn 0.7138 -0.3627 -0.5992
vn 0.2502 0.5407 0.8031
vn -0.6739 0.5419 0.5022
vn -0.6770 0.5484 -0.4909
vn 0.2459 0.5488 -0.7990
vn 0.8401 0.5422 -0.0120
vn 0.8685 0.4848 -0.1032
vn 0.0345 0.9931 -0.1119
vn -0.6429 0.4777 -0.5987
vn -0.2225 -0.3594 -0.9063
vn 0.1708 0.4854 -0.8574
vn -0.0940 0.9932 -0.0694
vn -0.7742 0.4698 0.4242
vn -0.9303 -0.3604 -0.0680
vn -0.7709 0.4752 -0.4242
vn -0.0851 0.9931 0.0804
vn 0.1672 0.4750 0.8640
vn -0.3462 -0.3579 0.8672
vn -0.6449 0.4758 0.5981
vn 0.0206 0.9935 0.1121
vn 0.8790 0.4640 0.1097
vn 0.7131 -0.3667 0.5975
vn 0.9302 0.3604 -0.0691
vn 0.3602 0.3691 -0.8567
vn -0.1637 -0.4829 -0.8602
vn 0.0967 -0.9936 -0.0579
vn 0.6457 -0.4756 -0.5974
vn 0.2213 0.3617 -0.9057
vn -0.7152 0.3620 -0.5979
vn -0.8759 -0.4697 -0.1105
vn -0.3763 -0.4705 -0.7981
vn -0.7899 0.3643 -0.4934
vn -0.7903 0.3683 0.4896
vn -0.3679 -0.4814 0.7956
vn -0.8763 -0.4693 0.1090
vn -0.7087 0.3665 0.6029
vn 0.2209 0.3611 0.9060
vn 0.6437 -0.4858 0.5913
vn -0.2519 -0.5457 0.7993
vn 0.6684 -0.5491 0.5017
vn 0.6852 -0.5464 -0.4816
vn -0.2547 -0.5416 -0.8011
vn 0.3740 0.4665 0.8016
vn 0.1109 0.9938 -0.0025
vn 0.3769 0.4662 -0.8003
vn 0.7952 -0.3575 -0.4898
vn 0.0898 -0.9937 0.0674
vn -0.1730 -0.4831 0.8583
vn 0.3495 0.3649 0.8630
vn 0.9260 0.3690 0.0797
vn 0.7635 -0.4873 -0.4237
usemtl None
s off
f 17/1/1 6/2/1 31/3/1
f 5/4/2 4/5/2 30/6/2
f 5/7/3 2/8/3 29/9/3
f 4/10/4 5/11/4 28/12/4
f 8/13/5 4/14/5 27/15/5
f 6/16/6 7/17/6 26/18/6
f 10/19/7 1/20/7 25/21/7
f 12/22/8 3/23/8 24/24/8
f 15/25/9 11/26/9 23/27/9
f 14/28/10 9/29/10 22/30/10
f 20/31/11 19/32/11 21/33/11
f 13/34/12 20/31/12 21/33/12
f 16/35/13 13/34/13 21/33/13
f 18/36/14 16/35/14 21/33/14
f 19/32/15 18/36/15 21/33/15
f 18/37/16 14/28/16 22/30/16
f 16/38/17 18/37/17 22/30/17
f 15/39/18 16/38/18 22/30/18
f 9/29/19 15/39/19 22/30/19
f 16/40/20 15/25/20 23/27/20
f 13/41/21 16/40/21 23/27/21
f 12/42/22 13/41/22 23/27/22
f 11/26/23 12/42/23 23/27/23
f 13/43/24 12/22/24 24/24/24
f 20/44/25 13/43/25 24/24/25
f 10/45/26 20/44/26 24/24/26
f 3/23/27 10/45/27 24/24/27
f 20/46/28 10/19/28 25/21/28
f 19/47/29 20/46/29 25/21/29
f 17/48/30 19/47/30 25/21/30
f 1/20/31 17/48/31 25/21/31
f 14/49/32 6/16/32 26/18/32
f 9/50/33 14/49/33 26/18/33
f 8/51/34 9/50/34 26/18/34
f 7/17/35 8/51/35 26/18/35
f 9/52/36 8/13/36 27/15/36
f 15/53/37 9/52/37 27/15/37
f 11/54/38 15/53/38 27/15/38
f 4/14/39 11/54/39 27/15/39
f 11/55/40 4/10/40 28/12/40
f 12/56/41 11/55/41 28/12/41
f 3/57/42 12/56/42 28/12/42
f 5/11/43 3/57/43 28/12/43
f 3/58/44 5/7/44 29/9/44
f 10/59/45 3/58/45 29/9/45
f 1/60/46 10/59/46 29/9/46
f 2/8/47 1/60/47 29/9/47
f 2/61/48 5/4/48 30/6/48
f 7/62/49 2/61/49 30/6/49
f 8/63/50 7/62/50 30/6/50
f 4/5/51 8/63/51 30/6/51
f 19/64/52 17/1/52 31/3/52
f 18/65/53 19/64/53 31/3/53
f 14/66/54 18/65/54 31/3/54
f 6/2/55 14/66/55 31/3/55
f 2/67/56 7/68/56 32/69/56
f 1/70/57 2/67/57 32/69/57
f 17/71/58 1/70/58 32/69/58
f 6/72/59 17/71/59 32/69/59
f 7/68/60 6/72/60 32/69/60
