# Blender v3.0.0 OBJ File: ''
# www.blender.org
o Cube
v -0.839596 0.000000 -0.462039
v 0.251951 0.000000 0.986560
v -0.160046 0.000000 0.991398
v -0.796267 0.000000 0.513188
v -1.049285 0.000000 -0.093468
v -1.034370 -0.399037 0.334220
v -0.503155 0.000000 -0.762340
v 0.118754 0.000000 -1.022434
v -0.152570 -0.522516 -1.075266
v -0.010766 -1.275802 -0.467653
v 0.461371 -1.275802 -0.535699
v 0.553753 -1.100139 -0.695471
v -0.041392 -0.460726 -1.142807
v -0.097567 -0.473139 -1.124361
v -0.802945 -0.909565 0.508169
v -0.343552 -1.275802 0.117287
v -0.313773 -0.720330 0.875851
v 0.412229 -0.866585 0.843499
v 0.492346 -1.275802 0.307942
v 0.631934 -1.048510 0.647394
v 0.873454 0.000000 0.431818
v 0.949110 0.000000 -0.398305
v 1.036833 -0.260260 -0.332369
v 1.010479 -0.349516 0.309512
vt 0.625000 0.895383
vt 0.745829 0.465471
vt 0.546807 0.935778
vt 0.455188 0.685004
vt 0.625000 0.714636
vt 0.662445 0.750000
vt 0.500151 0.797222
vt 0.419539 0.644386
vt 0.446766 0.896516
vt 0.309625 0.746387
vt 0.327119 0.618015
vt 0.483848 0.813526
vt 0.625000 0.787445
vt 0.522610 0.233009
vt 0.625000 0.105993
vt 0.625000 0.168194
vt 0.532286 0.243178
vt 0.703686 0.500000
vt 0.844560 0.500000
vt 0.875000 0.581806
vt 0.875000 0.644007
vt 0.856282 0.703171
vt 0.770383 0.750000
vt 0.625000 0.599734
vt 0.625000 0.280440
vt 0.534718 0.253270
vt 0.409422 0.354240
vt 0.375000 0.387990
vt 0.200755 0.573327
vt 0.237217 0.525773
vt 0.230461 0.667223
vt 0.235468 0.608040
vt 0.508906 0.834376
vt 0.695568 0.787017
vt 0.574001 0.436196
vt 0.556510 0.574401
vt 0.375000 0.570133
vt 0.625000 0.421314
vn -0.8633 0.3536 0.3601
vn 0.0116 -0.1608 0.9869
vn -0.1343 -0.7970 0.5889
vn -0.6008 -0.0000 0.7994
vn -0.6659 0.0000 -0.7460
vn 0.0000 1.0000 0.0000
vn -0.3613 0.3512 -0.8638
vn -0.1100 -0.6365 -0.7634
vn 0.0000 -1.0000 0.0000
vn -0.7576 -0.4903 -0.4310
vn 0.8723 -0.4879 -0.0320
vn 0.6008 0.0000 -0.7994
vn 0.6659 0.0000 0.7460
vn 0.9374 0.3376 0.0854
s off
f 4/1/1 5/2/1 6/3/1
f 18/4/2 2/5/2 3/6/2 17/7/2
f 20/8/3 18/4/3 17/7/3 15/9/3 16/10/3 19/11/3
f 17/12/4 3/13/4 4/1/4 6/3/4 15/9/4
f 9/14/5 1/15/5 7/16/5 14/17/5
f 22/18/6 8/19/6 7/20/6 1/21/6 5/22/6 4/23/6 3/6/6 2/5/6 21/24/6
f 8/25/7 13/26/7 14/17/7 7/16/7
f 9/14/8 14/17/8 13/26/8 12/27/8 11/28/8 10/29/8
f 10/29/9 11/30/9 19/11/9 16/31/9
f 9/14/10 10/32/10 16/10/10 15/33/10 6/34/10 5/2/10 1/15/10
f 12/27/11 23/35/11 24/36/11 20/8/11 19/37/11 11/28/11
f 12/27/12 13/26/12 8/25/12 22/38/12 23/35/12
f 20/8/13 24/36/13 21/24/13 2/5/13 18/4/13
f 23/35/14 22/38/14 21/24/14 24/36/14
