# Blender v3.0.0 OBJ File: ''
# www.blender.org
o Cube
v 0.500000 0.500000 -0.500000
v 0.500000 0.500000 0.500000
v -0.500000 0.500000 -0.500000
v -0.500000 0.500000 0.500000
v 0.000000 -0.500000 0.000000
vt 0.625000 0.500000
vt 0.875000 0.500000
vt 0.875000 0.750000
vt 0.625000 0.750000
vt 0.375000 0.750000
vt 0.625000 1.000000
vt 0.375000 0.000000
vt 0.625000 0.000000
vt 0.625000 0.250000
vt 0.375000 0.500000
vt 0.375000 0.250000
vn 0.0000 1.0000 0.0000
vn 0.0000 -0.4472 0.8944
vn -0.8944 -0.4472 0.0000
vn 0.8944 -0.4472 0.0000
vn 0.0000 -0.4472 -0.8944
s off
f 1/1/1 3/2/1 4/3/1 2/4/1
f 5/5/2 2/4/2 4/6/2
f 5/7/3 4/8/3 3/9/3
f 5/10/4 1/1/4 2/4/4
f 5/11/5 3/9/5 1/1/5
