# Blender v3.0.0 OBJ File: ''
# www.blender.org
o Cube.019
v 0.500000 0.500000 -0.165000
v 0.500000 0.500000 -0.500000
v -0.500000 0.500000 -0.500000
v -0.500000 0.500000 0.500000
v 0.500000 0.500000 0.500000
v 0.500000 0.500000 0.165000
v -0.203954 0.500000 0.165000
v -0.203954 0.500000 -0.165000
v 0.500000 -0.500000 0.500000
v -0.500000 -0.500000 0.500000
v -0.500000 -0.500000 -0.500000
v 0.500000 -0.500000 -0.500000
v 0.500000 -0.500000 -0.165000
v -0.203954 -0.500000 -0.165000
v -0.203954 -0.500000 0.165000
v 0.500000 -0.500000 0.165000
vt 0.625000 0.583750
vt 0.625000 0.500000
vt 0.875000 0.500000
vt 0.875000 0.750000
vt 0.625000 0.750000
vt 0.625000 0.666250
vt 0.800988 0.666250
vt 0.800989 0.583750
vt 0.375000 0.750000
vt 0.625000 1.000000
vt 0.375000 1.000000
vt 0.375000 0.000000
vt 0.625000 0.000000
vt 0.625000 0.250000
vt 0.375000 0.250000
vt 0.125000 0.750000
vt 0.125000 0.500000
vt 0.375000 0.500000
vt 0.375000 0.583750
vt 0.199012 0.583750
vt 0.199012 0.666250
vt 0.375000 0.666250
vt 0.437124 0.824012
vt 0.437124 1.000000
vt 0.562876 1.000000
vt 0.562876 0.824012
vt 0.437124 0.250000
vt 0.562876 0.250000
vt 0.562876 0.000000
vt 0.437124 0.000000
vt 0.562876 0.425988
vt 0.437124 0.425988
vn 0.0000 1.0000 0.0000
vn 0.0000 -0.0000 1.0000
vn -1.0000 -0.0000 0.0000
vn 0.0000 -1.0000 -0.0000
vn 1.0000 0.0000 0.0000
vn 0.0000 0.0000 -1.0000
s 1
f 1/1/1 2/2/1 3/3/1 4/4/1 5/5/1 6/6/1 7/7/1 8/8/1
f 9/9/2 5/5/2 4/10/2 10/11/2
f 10/12/3 4/13/3 3/14/3 11/15/3
f 9/9/4 10/16/4 11/17/4 12/18/4 13/19/4 14/20/4 15/21/4 16/22/4
f 5/5/5 9/9/5 16/22/5 6/6/5
f 12/18/5 2/2/5 1/1/5 13/19/5
f 11/15/6 3/14/6 2/2/6 12/18/6
f 16/23/6 15/24/6 7/25/6 6/26/6
f 14/27/5 8/28/5 7/29/5 15/30/5
f 1/31/2 8/28/2 14/27/2 13/32/2
