# Blender v3.0.0 OBJ File: ''
# www.blender.org
o Cube
v -0.928173 0.000000 -0.294692
v 0.435382 0.000000 0.895680
v -0.455730 0.000000 0.865275
v 0.927198 -0.853312 0.295881
v -0.889060 -0.924225 0.354843
v -0.776571 -0.875673 0.487346
v 0.693617 -0.772500 0.580747
v 0.621397 -1.028068 -0.670131
v -0.512741 -0.788892 -0.801336
v 0.516400 -0.951639 -0.793810
v -0.285433 -0.689101 -1.078551
v 0.652285 -1.121303 -0.488386
v -0.658444 -1.079274 -0.158463
v 0.329324 0.000000 -1.014173
v -0.474179 0.000000 -0.848365
v -0.273363 -0.623840 -1.093271
v 0.285740 -0.184983 -1.065512
v 0.746476 0.000000 -0.522797
v 0.908235 0.000000 0.319007
v 1.018374 -0.275294 0.184686
v 0.879203 -0.207933 -0.366454
v -0.853771 0.000000 0.396411
v -1.008304 0.000000 -0.072140
v -0.984552 -0.463804 0.242360
vt 0.515541 0.415280
vt 0.626746 0.273710
vt 0.875000 0.590870
vt 0.625000 0.347884
vt 0.601877 0.812175
vt 0.547020 0.693760
vt 0.625000 0.650838
vt 0.625000 0.821330
vt 0.625000 0.431497
vt 0.635937 0.525544
vt 0.567025 0.458969
vt 0.520673 0.450111
vt 0.496030 0.536644
vt 0.547534 0.620092
vt 0.518336 0.054008
vt 0.496492 0.882684
vt 0.526388 0.642595
vt 0.538862 0.691180
vt 0.506045 0.860628
vt 0.625000 0.908958
vt 0.625000 0.058062
vt 0.590588 0.034520
vt 0.599008 0.936839
vt 0.625000 0.553800
vt 0.593962 0.785214
vt 0.778725 0.757122
vt 0.625000 0.159130
vt 0.528437 0.103935
vt 0.693503 0.500000
vt 0.777116 0.500000
vt 0.875000 0.691938
vt 0.783958 0.750000
vt 0.696330 0.750000
vt 0.583020 0.474964
vt 0.509472 0.438910
vn -0.0315 -0.3863 0.9218
vn -0.1925 0.3043 -0.9329
vn -0.9372 0.1616 0.3091
vn 0.0471 -0.9502 0.3082
vn -0.1377 -0.8906 -0.4335
vn 0.8836 0.4364 -0.1698
vn 0.2478 -0.2566 -0.9342
vn -0.7733 0.0000 -0.6341
vn 0.9440 -0.1995 -0.2628
vn 0.7733 -0.0000 0.6341
vn 0.7623 -0.0000 -0.6472
vn 0.0000 1.0000 0.0000
vn -0.9065 -0.2678 -0.3264
vn -0.7623 -0.0000 0.6472
s off
f 6/1/1 7/2/1 2/3/1 3/4/1
f 17/5/2 16/6/2 15/7/2 14/8/2
f 22/9/3 23/10/3 24/11/3
f 6/1/4 5/12/4 13/13/4 12/14/4 4/15/4 7/2/4
f 8/16/5 12/14/5 13/13/5 9/17/5 11/18/5 10/19/5
f 18/20/6 19/21/6 20/22/6 21/23/6
f 10/19/7 11/18/7 16/6/7 17/5/7
f 9/17/8 1/24/8 15/7/8 16/6/8 11/18/8
f 4/15/9 12/14/9 8/25/9 21/26/9 20/22/9
f 4/15/10 20/22/10 19/21/10 2/27/10 7/28/10
f 10/19/11 17/5/11 14/8/11 18/20/11 21/23/11 8/16/11
f 22/29/12 3/30/12 2/3/12 19/31/12 18/32/12 14/33/12 15/7/12 1/24/12 23/10/12
f 9/17/13 13/13/13 5/12/13 24/34/13 23/10/13 1/24/13
f 6/1/14 3/4/14 22/9/14 24/11/14 5/35/14
