# Blender v3.0.0 OBJ File: ''
# www.blender.org
o Cube
v 0.388134 2.000000 -0.388134
v 0.500000 1.888134 -0.500000
v 0.388134 0.000000 -0.388134
v 0.500000 0.111866 -0.500000
v 0.388134 2.000000 0.388134
v 0.500000 1.888134 0.500000
v 0.388134 0.000000 0.388134
v 0.500000 0.111866 0.500000
v -0.388134 2.000000 -0.388134
v -0.500000 1.888134 -0.500000
v -0.500000 0.111866 -0.500000
v -0.388134 0.000000 -0.388134
v -0.388134 2.000000 0.388134
v -0.500000 1.888134 0.500000
v -0.388134 0.000000 0.388134
v -0.500000 0.111866 0.500000
vn 0.0000 -1.0000 0.0000
vn -1.0000 0.0000 0.0000
vn 0.0000 0.0000 1.0000
vn 0.0000 1.0000 0.0000
vn 1.0000 0.0000 0.0000
vn -0.7071 -0.7071 0.0000
vn 0.0000 -0.7071 -0.7071
vn 0.0000 0.7071 0.7071
vn 0.7071 0.7071 0.0000
vn 0.0000 -0.7071 0.7071
vn -0.7071 0.7071 0.0000
vn 0.0000 0.7071 -0.7071
vn 0.7071 -0.7071 0.0000
vn 0.0000 0.0000 -1.0000
s off
f 12//1 3//1 7//1 15//1
f 16//2 14//2 10//2 11//2
f 8//3 6//3 14//3 16//3
f 1//4 9//4 13//4 5//4
f 4//5 2//5 6//5 8//5
f 12//6 15//6 16//6 11//6
f 3//7 12//7 11//7 4//7
f 5//8 13//8 14//8 6//8
f 1//9 5//9 6//9 2//9
f 15//10 7//10 8//10 16//10
f 13//11 9//11 10//11 14//11
f 9//12 1//12 2//12 10//12
f 7//13 3//13 4//13 8//13
f 11//14 10//14 2//14 4//14
