# Blender v3.0.0 OBJ File: ''
# www.blender.org
o Sphere
v 0.000000 0.382683 -0.923880
v 0.000000 0.307886 -0.743303
v 0.000000 -0.382683 -0.923880
v 0.000000 -0.307886 -0.743303
v 0.000000 -0.923880 -0.382683
v 0.000000 -0.743303 -0.307886
v 0.353553 0.382683 -0.853553
v 0.284450 0.307886 -0.686723
v 0.307886 -0.000000 -0.743303
v 0.382683 -0.000000 -0.923880
v 0.353553 -0.382683 -0.853553
v 0.284450 -0.307886 -0.686723
v 0.270598 -0.707107 -0.653281
v 0.217708 -0.568900 -0.525595
v 0.117823 -0.743303 -0.284450
v 0.146447 -0.923880 -0.353553
v 0.402273 -0.568900 -0.402273
v 0.500000 -0.707107 -0.500000
v 0.217709 -0.743303 -0.217708
v 0.270598 -0.923880 -0.270598
v 0.653282 -0.707107 -0.270598
v 0.525595 -0.568900 -0.217708
v 0.353554 -0.923880 -0.146447
v 0.284450 -0.743303 -0.117823
v 0.923880 0.382683 0.000000
v 0.743303 0.307886 0.000000
v 1.000000 -0.000000 0.000000
v 0.804546 -0.000000 0.000000
v 0.923880 -0.382683 0.000000
v 0.743303 -0.307886 0.000000
v 0.707107 -0.707107 0.000000
v 0.568900 -0.568900 0.000000
v 0.382684 -0.923880 0.000000
v 0.307886 -0.743303 0.000000
v 0.853553 0.382683 0.353554
v 0.686723 0.307886 0.284450
v 0.923879 -0.000000 0.382684
v 0.743303 -0.000000 0.307886
v 0.686723 -0.307886 0.284450
v 0.853553 -0.382683 0.353554
v 0.525595 -0.568900 0.217709
v 0.653282 -0.707107 0.270598
v 0.284450 -0.743303 0.117823
v 0.353553 -0.923880 0.146447
v 0.500000 -0.707107 0.500000
v 0.402273 -0.568900 0.402273
v 0.217708 -0.743303 0.217709
v 0.270598 -0.923880 0.270598
v 0.270598 -0.707107 0.653282
v 0.217708 -0.568900 0.525595
v 0.117823 -0.743303 0.284450
v 0.146447 -0.923880 0.353554
v -0.000000 0.382683 0.923880
v -0.000000 0.307886 0.743303
v -0.000000 -0.000000 1.000000
v -0.000000 -0.000000 0.804546
v -0.000000 -0.382683 0.923880
v -0.000000 -0.307886 0.743303
v -0.000000 -0.707107 0.707107
v -0.000000 -0.568900 0.568900
v -0.000000 -0.923880 0.382684
v -0.000000 -0.743303 0.307886
v -0.284450 0.307886 0.686723
v -0.353554 0.382683 0.853553
v -0.307887 -0.000000 0.743303
v -0.382684 -0.000000 0.923880
v -0.284450 -0.307886 0.686723
v -0.353554 -0.382683 0.853553
v -0.217709 -0.568900 0.525595
v -0.270598 -0.707107 0.653282
v -0.146447 -0.923880 0.353553
v -0.117823 -0.743303 0.284450
v -0.500000 -0.707107 0.500000
v -0.402273 -0.568900 0.402273
v -0.270598 -0.923880 0.270598
v -0.217709 -0.743303 0.217708
v 0.000000 -0.804546 0.000000
v 0.000000 -1.000000 0.000000
v -0.653282 -0.707107 0.270598
v -0.525595 -0.568900 0.217708
v -0.353553 -0.923880 0.146447
v -0.284450 -0.743303 0.117823
v -0.743303 0.307886 -0.000000
v -0.923879 0.382683 -0.000000
v -0.804546 -0.000000 -0.000000
v -1.000000 -0.000000 -0.000000
v -0.923879 -0.382683 -0.000000
v -0.743303 -0.307886 -0.000000
v -0.707107 -0.707107 -0.000000
v -0.568900 -0.568900 -0.000000
v -0.382683 -0.923880 -0.000000
v -0.307886 -0.743303 -0.000000
v -0.686722 0.307886 -0.284450
v -0.853553 0.382683 -0.353554
v -0.923879 -0.000000 -0.382684
v -0.743303 -0.000000 -0.307887
v -0.686722 -0.307886 -0.284450
v -0.853553 -0.382683 -0.353554
v -0.525595 -0.568900 -0.217709
v -0.653281 -0.707107 -0.270598
v -0.284450 -0.743303 -0.117823
v -0.353553 -0.923880 -0.146447
v -0.500000 -0.707107 -0.500000
v -0.402273 -0.568900 -0.402273
v -0.270598 -0.923880 -0.270598
v -0.217708 -0.743303 -0.217709
v -0.270598 -0.707107 -0.653281
v -0.217708 -0.568900 -0.525595
v -0.146446 -0.923880 -0.353553
v -0.117823 -0.743303 -0.284450
v 0.000001 -0.000000 -1.000000
v 0.000000 -0.000000 -0.804545
v 0.000000 -0.707107 -0.707107
v 0.000000 -0.568900 -0.568900
v 0.000000 0.660928 -0.737963
v -0.737963 0.660928 -0.000000
v -0.233029 0.508984 0.562582
v 0.282406 0.660928 -0.681789
v 0.737963 0.660928 0.000000
v -0.681788 0.660928 -0.282406
v 0.562582 0.508984 0.233029
v -0.282406 0.660928 0.681789
v 0.681789 0.660928 0.282406
v 0.000000 0.508984 -0.608934
v 0.608934 0.508984 0.000000
v -0.000000 0.508984 0.608934
v 0.233029 0.508984 -0.562582
v -0.608934 0.508984 -0.000000
v -0.000000 0.660928 0.737963
v -0.562582 0.508984 -0.233029
vt 0.687500 0.732207
vt 0.687500 0.625000
vt 0.750000 0.625000
vt 0.750000 0.732207
vt 0.718750 0.000000
vt 0.750000 0.125000
vt 0.687500 0.125000
vt 0.750000 0.250000
vt 0.750000 0.375000
vt 0.687500 0.375000
vt 0.687500 0.250000
vt 0.750000 0.500000
vt 0.687500 0.500000
vt 0.500000 0.500000
vt 0.500000 0.375000
vt 0.500000 0.375000
vt 0.500000 0.500000
vt 0.500000 0.250000
vt 0.500000 0.250000
vt 0.625000 0.250000
vt 0.625000 0.125000
vt 0.562500 0.250000
vt 0.562500 0.250000
vt 0.625000 0.250000
vt 0.656250 0.000000
vt 0.562500 0.125000
vt 0.250000 0.376957
vt 0.750000 0.625000
vt 0.250000 0.354759
vt 0.750000 0.500000
vt 0.593750 0.000000
vt 0.750000 0.375000
vt 0.750000 0.250000
vt 0.812500 0.250000
vt 0.812500 0.250000
vt 0.875000 0.250000
vt 0.875000 0.250000
vt 0.531250 0.000000
vt 0.500000 0.125000
vt 0.937500 0.250000
vt 0.937500 0.250000
vt 0.937500 0.375000
vt 0.937500 0.375000
vt 0.468750 0.000000
vt 0.437500 0.125000
vt 0.437500 0.375000
vt 0.437500 0.250000
vt 0.500000 0.625000
vt 0.437500 0.625000
vt 0.437500 0.500000
vt 0.437500 0.732207
vt 0.500000 0.732207
vt 0.375000 0.250000
vt 0.375000 0.125000
vt 0.406250 0.000000
vt 0.312500 0.250000
vt 0.312500 0.125000
vt 0.343750 0.000000
vt 0.281250 0.000000
vt 0.250000 0.125000
vt 0.250000 0.250000
vt 0.218750 0.000000
vt 0.187500 0.125000
vt 0.250000 0.375000
vt 0.187500 0.375000
vt 0.187500 0.250000
vt 0.250000 0.500000
vt 0.250000 0.625000
vt 0.187500 0.625000
vt 0.187500 0.500000
vt 0.187500 0.732207
vt 0.250000 0.732207
vt 0.125000 0.250000
vt 0.125000 0.125000
vt 0.156250 0.000000
vt 0.062500 0.250000
vt 0.062500 0.125000
vt 0.093750 0.000000
vt 0.031250 0.000000
vt 0.000000 0.125000
vt 0.000000 0.250000
vt 1.000000 0.250000
vt 1.000000 0.375000
vt 1.000000 0.500000
vt 1.000000 0.625000
vt 0.937500 0.625000
vt 0.937500 0.500000
vt 1.000000 0.125000
vt 0.937500 0.125000
vt 0.937500 0.732207
vt 1.000000 0.732207
vt 0.968750 0.000000
vt 0.875000 0.125000
vt 0.906250 0.000000
vt 0.843750 0.000000
vt 0.812500 0.125000
vt 0.781250 0.000000
vt 0.750000 0.721306
vt 0.687500 0.625000
vt 0.687500 0.721306
vt 0.718750 0.000000
vt 0.687500 0.125000
vt 0.750000 0.125000
vt 0.687500 0.250000
vt 0.687500 0.375000
vt 0.687500 0.500000
vt 0.625000 0.125000
vt 0.000000 0.000000
vt 0.656250 0.000000
vt 0.562500 0.125000
vt 0.937500 0.500000
vt 0.000000 0.000000
vt 0.593750 0.000000
vt 0.000000 0.000000
vt 0.132707 0.298584
vt 0.153215 0.290089
vt 0.000000 0.000000
vt 1.000000 0.625000
vt 1.000000 0.721306
vt 1.000000 0.500000
vt 1.000000 0.375000
vt 0.531250 0.000000
vt 0.500000 0.125000
vt 0.000000 0.250000
vt 0.062500 0.250000
vt 0.468750 0.000000
vt 0.437500 0.125000
vt 0.437500 0.250000
vt 0.437500 0.375000
vt 0.437500 0.500000
vt 0.437500 0.625000
vt 0.500000 0.625000
vt 0.437500 0.721306
vt 0.500000 0.721306
vt 0.375000 0.125000
vt 0.375000 0.250000
vt 0.406250 0.000000
vt 0.312500 0.125000
vt 0.312500 0.250000
vt 0.343750 0.000000
vt 0.281250 0.000000
vt 0.250000 0.125000
vt 0.250000 0.250000
vt 0.218750 0.000000
vt 0.187500 0.125000
vt 0.250000 0.375000
vt 0.187500 0.250000
vt 0.187500 0.375000
vt 0.250000 0.500000
vt 0.187500 0.500000
vt 0.187500 0.625000
vt 0.250000 0.625000
vt 0.187500 0.721306
vt 0.250000 0.721306
vt 0.125000 0.250000
vt 0.125000 0.125000
vt 0.156250 0.000000
vt 0.000000 0.000000
vt 0.062500 0.125000
vt 0.093750 0.000000
vt 0.031250 0.000000
vt 0.000000 0.125000
vt 1.000000 0.250000
vt 0.937500 0.625000
vt 1.000000 0.125000
vt 0.937500 0.125000
vt 0.937500 0.721306
vt 0.968750 0.000000
vt 0.875000 0.125000
vt 0.906250 0.000000
vt 0.812500 0.125000
vt 0.843750 0.000000
vt 0.781250 0.000000
vt 0.000000 0.000000
vt 0.000000 0.000000
vt 0.367293 0.201416
vt 0.346785 0.209911
vt 0.290089 0.346785
vt 0.298584 0.367293
vt 0.000000 0.000000
vt 0.354759 0.250000
vt 0.376957 0.250000
vt 0.250000 0.145241
vt 0.209910 0.153215
vt 0.201416 0.132707
vt 0.250000 0.123043
vt 0.000000 0.000000
vt 0.145241 0.250000
vt 0.123043 0.250000
vt 0.000000 0.000000
vt 0.000000 0.000000
vt 0.000000 0.000000
vn 0.1632 0.5481 -0.8203
vn 0.0388 -0.9800 -0.1949
vn 0.1632 -0.5481 -0.8203
vn 0.1915 0.1915 -0.9626
vn 0.1098 -0.8264 -0.5522
vn 0.1915 -0.1915 -0.9626
vn 0.0000 0.0000 -1.0000
vn 0.3128 -0.8264 -0.4681
vn 0.7002 0.7002 -0.1393
vn 0.5936 0.7002 -0.3966
vn 0.1104 -0.9800 -0.1653
vn 0.4681 -0.8264 -0.3128
vn -1.0000 0.0000 0.0000
vn 0.1653 -0.9800 -0.1104
vn -0.1393 0.7002 -0.7002
vn -0.3966 0.7002 -0.5936
vn 0.1949 -0.9800 -0.0388
vn -0.5936 0.7002 -0.3966
vn 0.3827 -0.0000 -0.9239
vn 0.5522 -0.8264 -0.1098
vn 0.1949 -0.9800 0.0388
vn 0.8203 -0.5481 0.1632
vn 0.9626 0.1915 0.1915
vn 0.5522 -0.8264 0.1098
vn 0.9626 -0.1915 0.1915
vn 0.8203 0.5481 0.1632
vn 0.4681 -0.8264 0.3128
vn 0.1653 -0.9800 0.1104
vn 0.3128 -0.8264 0.4681
vn 0.1104 -0.9800 0.1653
vn 0.0388 -0.9800 0.1949
vn 0.1098 -0.8264 0.5522
vn -0.0388 -0.9800 0.1949
vn -0.1632 -0.5481 0.8203
vn -0.1915 0.1915 0.9626
vn -0.1098 -0.8264 0.5522
vn -0.1915 -0.1915 0.9626
vn -0.1632 0.5481 0.8203
vn -0.3128 -0.8264 0.4681
vn -0.1104 -0.9800 0.1653
vn -0.4681 -0.8264 0.3128
vn -0.1653 -0.9800 0.1104
vn -0.1949 -0.9800 0.0388
vn -0.5522 -0.8264 0.1098
vn -0.8203 -0.5481 -0.1632
vn -0.9626 0.1915 -0.1915
vn -0.5522 -0.8264 -0.1098
vn -0.9626 -0.1915 -0.1915
vn -0.8203 0.5481 -0.1632
vn -0.1949 -0.9800 -0.0388
vn -0.4681 -0.8264 -0.3128
vn -0.1653 -0.9800 -0.1104
vn -0.1104 -0.9800 -0.1653
vn -0.3128 -0.8264 -0.4681
vn -0.0388 -0.9800 -0.1949
vn -0.1098 -0.8264 -0.5522
vn -0.0388 0.9800 0.1949
vn -0.1098 0.8264 0.5522
vn 0.3966 0.7002 -0.5936
vn 0.9239 0.0000 0.3827
vn -0.3128 0.8264 0.4681
vn -0.1104 0.9800 0.1653
vn -0.4681 0.8264 0.3128
vn -0.1653 0.9800 0.1104
vn -0.0000 -0.0000 1.0000
vn -0.1949 0.9800 0.0388
vn -0.7002 0.7002 0.1393
vn -0.5522 0.8264 0.1098
vn -0.1949 0.9800 -0.0388
vn -0.5522 0.8264 -0.1098
vn -0.4681 0.8264 -0.3128
vn -0.1653 0.9800 -0.1104
vn -0.3128 0.8264 -0.4681
vn -0.1104 0.9800 -0.1653
vn 0.5936 0.7002 0.3966
vn -0.0388 0.9800 -0.1949
vn -0.1098 0.8264 -0.5522
vn 0.0388 0.9800 -0.1949
vn 0.1098 0.8264 -0.5522
vn 0.3128 0.8264 -0.4681
vn -0.9239 -0.0000 -0.3827
vn 0.1104 0.9800 -0.1653
vn 0.4681 0.8264 -0.3128
vn 0.1653 0.9800 -0.1104
vn 0.1949 0.9800 -0.0388
vn 0.5522 0.8264 -0.1098
vn 0.5522 0.8264 0.1098
vn 0.1949 0.9800 0.0388
vn 0.4681 0.8264 0.3128
vn 0.1653 0.9800 0.1104
vn 0.1104 0.9800 0.1653
vn 0.3128 0.8264 0.4681
vn 0.0388 0.9800 0.1949
vn -0.3827 0.0000 0.9239
vn 0.1098 0.8264 0.5522
vn -0.1499 0.6400 0.7536
vn -0.5936 0.7002 0.3966
vn -0.3966 0.7002 0.5936
vn -0.7536 0.6400 -0.1499
vn 0.3966 0.7002 0.5936
vn 0.1393 0.7002 0.7002
vn 0.1499 0.6400 -0.7536
vn 0.7536 0.6400 0.1499
vn 1.0000 -0.0000 0.0000
s off
f 118/1/1 7/2/1 1/3/1 115/4/1
f 78/5/2 5/6/2 16/7/2
f 113/8/3 3/9/3 11/10/3 13/11/3
f 111/12/4 1/3/4 7/2/4 10/13/4
f 5/6/5 113/8/5 13/11/5 16/7/5
f 3/9/6 111/12/6 10/13/6 11/10/6
f 27/14/7 29/15/7 30/16/7 28/17/7
f 30/16/7 29/15/7 31/18/7 32/19/7
f 16/7/8 13/11/8 18/20/8 20/21/8
f 31/18/9 21/22/9 22/23/9 32/19/9
f 22/23/10 21/22/10 18/20/10 17/24/10
f 78/25/11 16/7/11 20/21/11
f 20/21/12 18/20/12 21/22/12 23/26/12
f 115/27/13 1/3/13 2/28/13 124/29/13
f 111/12/13 112/30/13 2/28/13 1/3/13
f 78/31/14 20/21/14 23/26/14
f 112/30/13 111/12/13 3/9/13 4/32/13
f 4/32/13 3/9/13 113/8/13 114/33/13
f 113/8/15 107/34/15 108/35/15 114/33/15
f 107/34/16 103/36/16 104/37/16 108/35/16
f 78/38/17 23/26/17 33/39/17
f 103/36/18 100/40/18 99/41/18 104/37/18
f 99/41/19 100/40/19 98/42/19 97/43/19
f 23/26/20 21/22/20 31/18/20 33/39/20
f 78/44/21 33/39/21 44/45/21
f 31/18/22 29/15/22 40/46/22 42/47/22
f 27/14/23 25/48/23 35/49/23 37/50/23
f 33/39/24 31/18/24 42/47/24 44/45/24
f 29/15/25 27/14/25 37/50/25 40/46/25
f 123/51/26 35/49/26 25/48/26 119/52/26
f 44/45/27 42/47/27 45/53/27 48/54/27
f 78/55/28 44/45/28 48/54/28
f 48/54/29 45/53/29 49/56/29 52/57/29
f 78/58/30 48/54/30 52/57/30
f 78/59/31 52/57/31 61/60/31
f 52/57/32 49/56/32 59/61/32 61/60/32
f 78/62/33 61/60/33 71/63/33
f 59/61/34 57/64/34 68/65/34 70/66/34
f 55/67/35 53/68/35 64/69/35 66/70/35
f 61/60/36 59/61/36 70/66/36 71/63/36
f 57/64/37 55/67/37 66/70/37 68/65/37
f 122/71/38 64/69/38 53/68/38 129/72/38
f 71/63/39 70/66/39 73/73/39 75/74/39
f 78/75/40 71/63/40 75/74/40
f 75/74/41 73/73/41 79/76/41 81/77/41
f 78/78/42 75/74/42 81/77/42
f 78/79/43 81/77/43 91/80/43
f 81/77/44 79/76/44 89/81/44 91/80/44
f 89/82/45 87/83/45 98/42/45 100/40/45
f 86/84/46 84/85/46 94/86/46 95/87/46
f 91/88/47 89/82/47 100/40/47 102/89/47
f 87/83/48 86/84/48 95/87/48 98/42/48
f 120/90/49 94/86/49 84/85/49 116/91/49
f 78/92/50 91/88/50 102/89/50
f 102/89/51 100/40/51 103/36/51 105/93/51
f 78/94/52 102/89/52 105/93/52
f 78/95/53 105/93/53 109/96/53
f 105/93/54 103/36/54 107/34/54 109/96/54
f 78/97/55 109/96/55 5/6/55
f 109/96/56 107/34/56 113/8/56 5/6/56
f 124/98/34 2/28/34 8/99/34 127/100/34
f 77/101/57 15/102/57 6/103/57
f 114/33/38 14/104/38 12/105/38 4/32/38
f 112/30/37 9/106/37 8/99/37 2/28/37
f 114/33/58 6/103/58 15/102/58 14/104/58
f 4/32/35 12/105/35 9/106/35 112/30/35
f 18/20/59 13/11/59 14/104/59 17/24/59
f 13/11/60 11/10/60 12/105/60 14/104/60
f 14/104/61 15/102/61 19/107/61 17/24/61
f 12/105/60 11/10/60 10/13/60 9/106/60
f 10/13/60 7/2/60 8/108/60 9/106/60
f 15/102/62 77/109/62 19/107/62
f 17/24/63 19/107/63 24/110/63 22/23/63
f 98/42/19 95/87/19 96/111/19 97/43/19
f 96/111/19 95/87/19 94/86/19 93/112/19
f 19/107/64 77/113/64 24/110/64
f 94/114/19 120/115/19 130/116/19 93/112/19
f 116/117/65 84/85/65 83/118/65 128/119/65
f 85/120/65 83/118/65 84/85/65 86/84/65
f 88/121/65 85/120/65 86/84/65 87/83/65
f 77/122/66 34/123/66 24/110/66
f 89/81/65 90/124/65 88/121/65 87/83/65
f 89/81/67 79/76/67 80/125/67 90/124/67
f 22/23/68 24/110/68 34/123/68 32/19/68
f 77/126/69 43/127/69 34/123/69
f 30/16/49 32/19/49 41/128/49 39/129/49
f 28/17/48 38/130/48 36/131/48 26/132/48
f 34/123/70 43/127/70 41/128/70 32/19/70
f 30/16/46 39/129/46 38/130/46 28/17/46
f 26/132/45 36/131/45 121/133/45 125/134/45
f 43/127/71 47/135/71 46/136/71 41/128/71
f 77/137/72 47/135/72 43/127/72
f 47/135/73 51/138/73 50/139/73 46/136/73
f 77/140/74 51/138/74 47/135/74
f 46/136/75 45/53/75 42/47/75 41/128/75
f 77/141/76 62/142/76 51/138/76
f 51/138/77 62/142/77 60/143/77 50/139/77
f 77/144/78 72/145/78 62/142/78
f 58/146/1 60/143/1 69/147/1 67/148/1
f 56/149/6 65/150/6 63/151/6 54/152/6
f 69/147/79 60/143/79 62/142/79 72/145/79
f 58/146/4 67/148/4 65/150/4 56/149/4
f 54/152/3 63/151/3 117/153/3 126/154/3
f 74/155/80 69/147/80 72/145/80 76/156/80
f 70/66/81 68/65/81 67/148/81 69/147/81
f 76/156/82 72/145/82 77/157/82
f 67/148/81 68/65/81 66/70/81 65/150/81
f 65/150/81 66/70/81 64/69/81 63/158/81
f 80/125/83 74/155/83 76/156/83 82/159/83
f 82/159/84 76/156/84 77/160/84
f 77/161/85 92/162/85 82/159/85
f 90/124/86 80/125/86 82/159/86 92/162/86
f 88/121/26 90/163/26 99/41/26 97/43/26
f 85/120/25 96/111/25 93/164/25 83/118/25
f 99/41/87 90/163/87 92/165/87 101/166/87
f 88/121/23 97/43/23 96/111/23 85/120/23
f 83/118/22 93/164/22 130/167/22 128/119/22
f 77/168/88 101/166/88 92/165/88
f 104/37/89 99/41/89 101/166/89 106/169/89
f 106/169/90 101/166/90 77/170/90
f 110/171/91 106/169/91 77/172/91
f 104/37/92 106/169/92 110/171/92 108/35/92
f 77/173/93 6/103/93 110/171/93
f 41/128/94 42/47/94 40/46/94 39/129/94
f 38/130/94 39/129/94 40/46/94 37/50/94
f 108/35/95 110/171/95 6/103/95 114/33/95
f 37/50/94 35/49/94 36/174/94 38/130/94
f 35/175/94 123/176/94 121/177/94 36/174/94
f 127/178/96 118/179/96 115/27/96 124/29/96
f 7/180/60 118/179/60 127/178/60 8/108/60
f 80/125/97 79/76/97 73/73/97 74/155/97
f 74/155/98 73/73/98 70/66/98 69/147/98
f 125/181/99 121/177/99 123/176/99 119/182/99
f 49/56/100 45/53/100 46/136/100 50/139/100
f 59/61/101 49/56/101 50/139/101 60/143/101
f 126/183/102 117/184/102 122/185/102 129/186/102
f 64/187/81 122/185/81 117/184/81 63/158/81
f 128/188/103 130/116/103 120/115/103 116/189/103
f 125/134/7 119/190/7 25/48/7 26/132/7
f 27/14/7 28/17/7 26/132/7 25/48/7
f 129/191/104 53/192/104 54/152/104 126/154/104
f 55/67/104 56/149/104 54/152/104 53/192/104
f 57/64/104 58/146/104 56/149/104 55/67/104
f 59/61/104 60/143/104 58/146/104 57/64/104
