# Blender v3.0.0 OBJ File: ''
# www.blender.org
o Cube.001_Cube.002
v -0.500000 -0.113597 0.500000
v -0.500000 -0.113597 -0.500000
v 0.500000 -0.113597 0.500000
v 0.500000 -0.113597 -0.500000
v -0.394832 0.000000 0.394832
v -0.394832 0.000000 -0.500000
v 0.500000 0.000000 -0.500000
v 0.500000 0.000000 0.394832
v -0.500000 0.114804 0.500000
v -0.500000 0.114804 -0.500000
v -0.394832 0.114804 -0.500000
v 0.500000 0.114804 0.500000
v 0.500000 0.114804 0.394832
v -0.394832 0.114804 0.394832
vt 0.375000 0.250000
vt 0.375000 0.000000
vt 0.432100 0.000000
vt 0.432100 0.250000
vt 0.403399 0.276292
vt 0.403399 0.500000
vt 0.375000 0.500000
vt 0.432100 0.276292
vt 0.432100 0.750000
vt 0.375000 0.750000
vt 0.403399 0.723708
vt 0.432100 0.723708
vt 0.432100 1.000000
vt 0.375000 1.000000
vt 0.125000 0.500000
vt 0.125000 0.750000
vt 0.375000 0.794700
vt 0.375000 1.000000
vt 0.397041 1.000000
vt 0.397041 0.794700
vt 0.397041 0.000000
vt 0.375000 0.000000
vt 0.375000 0.205300
vt 0.397041 0.205300
vt 0.330300 0.544700
vt 0.125000 0.544700
vt 0.125000 0.750000
vt 0.330300 0.750000
vt 0.204513 0.595779
vt 0.195733 0.595779
vt 0.195733 0.679267
vt 0.279221 0.679267
vt 0.279221 0.670487
vt 0.204513 0.670487
vn -1.0000 0.0000 0.0000
vn 0.0000 0.0000 -1.0000
vn 1.0000 0.0000 0.0000
vn 0.0000 0.0000 1.0000
vn 0.0000 -1.0000 0.0000
vn 0.0000 1.0000 0.0000
s off
f 2/1/1 1/2/1 9/3/1 10/4/1
f 6/5/2 7/6/2 4/7/2 2/1/2 10/4/2 11/8/2
f 12/9/3 3/10/3 4/7/3 7/6/3 8/11/3 13/12/3
f 9/13/4 1/14/4 3/10/4 12/9/4
f 2/15/5 4/7/5 3/10/5 1/16/5
f 8/17/2 5/18/2 14/19/2 13/20/2
f 14/21/3 5/22/3 6/23/3 11/24/3
f 7/25/6 6/26/6 5/27/6 8/28/6
f 11/29/6 10/30/6 9/31/6 12/32/6 13/33/6 14/34/6
