# Blender v3.0.0 OBJ File: ''
# www.blender.org
o Cube.001_Cube.002
v -0.500000 -0.113597 0.500000
v -0.500000 -0.113597 -0.500000
v 0.500000 -0.113597 0.500000
v 0.500000 -0.113597 -0.500000
v -0.500000 0.000000 0.500000
v -0.500000 0.000000 -0.500000
v 0.500000 0.000000 -0.500000
v 0.500000 0.000000 0.500000
vt 0.375000 0.250000
vt 0.375000 0.000000
vt 0.403399 0.000000
vt 0.403399 0.250000
vt 0.375000 0.500000
vt 0.403399 0.500000
vt 0.403399 0.750000
vt 0.375000 0.750000
vt 0.403399 1.000000
vt 0.375000 1.000000
vt 0.125000 0.500000
vt 0.125000 0.750000
vt 0.364714 0.510286
vt 0.135286 0.510286
vt 0.135286 0.739714
vt 0.364714 0.739714
vn -1.0000 0.0000 0.0000
vn 0.0000 0.0000 -1.0000
vn 1.0000 0.0000 0.0000
vn 0.0000 0.0000 1.0000
vn 0.0000 -1.0000 0.0000
vn 0.0000 1.0000 0.0000
s off
f 2/1/1 1/2/1 5/3/1 6/4/1
f 4/5/2 2/1/2 6/4/2 7/6/2
f 8/7/3 3/8/3 4/5/3 7/6/3
f 5/9/4 1/10/4 3/8/4 8/7/4
f 2/11/5 4/5/5 3/8/5 1/12/5
f 7/13/6 6/14/6 5/15/6 8/16/6
